<?xml version="1.0" encoding="utf-8"?>
<svg viewBox="0 0 500 500" xmlns="http://www.w3.org/2000/svg">
  <g fill="currentColor" transform="matrix(15.628239, 0, 0, 15.628239, 0.245938, 125.081955)" style="">
    <path d="M7.988 12.158c-1.851 0-2.941-1.57-2.941-3.99V7.84c0-2.408 1.101-3.996 2.965-3.996c1.857 0 2.935 1.57 2.935 3.996v.328c0 2.408-1.101 3.99-2.959 3.99ZM8 4.951c-1.008 0-1.629 1.09-1.629 2.895v.31c0 1.81.627 2.895 1.629 2.895s1.623-1.09 1.623-2.895v-.31c0-1.8-.621-2.895-1.623-2.895Z" style="fill: rgb(205, 158, 10);"/>
    <path d="M0 2a2 2 0 0 1 2-2h12a2 2 0 0 1 2 2v12a2 2 0 0 1-2 2H2a2 2 0 0 1-2-2V2Zm15 0a1 1 0 0 0-1-1H2a1 1 0 0 0-1 1v12a1 1 0 0 0 1 1h12a1 1 0 0 0 1-1V2Z" style="fill: rgb(205, 158, 10);"/>
  </g>
  <path d="M 280.939 123.485 C 263.668 123.485 249.681 137.474 249.681 154.742 L 249.681 342.28 C 249.681 359.534 263.668 373.536 280.939 373.536 L 468.476 373.536 C 485.745 373.536 499.733 359.534 499.733 342.28 L 499.733 154.742 C 499.733 137.474 485.745 123.485 468.476 123.485 L 280.939 123.485 Z M 394.759 186.03 L 394.759 311.025 L 374.254 311.025 L 374.254 206.91 L 373.239 206.91 L 344.577 227.507 L 344.577 207.642 L 374.254 186.03 L 394.759 186.03 Z" style="fill: rgb(250, 204, 22);"/>
</svg>